<?xml version="1.0" standalone="no"?>
<!DOCTYPE svg PUBLIC "-//W3C//DTD SVG 20010904//EN"
 "http://www.w3.org/TR/2001/REC-SVG-20010904/DTD/svg10.dtd">
<svg version="1.0" xmlns="http://www.w3.org/2000/svg"
 width="1526.000000pt" height="1526.000000pt" viewBox="0 0 1526.000000 1526.000000"
 preserveAspectRatio="xMidYMid meet">
<metadata>
Created by potrace 1.11, written by Peter Selinger 2001-2013
</metadata>
<g transform="translate(0.000000,1526.000000) scale(0.100000,-0.100000)"
fill="#000000" stroke="none">
<path d="M9201 11253 c-6 -21 -27 -94 -47 -163 -19 -69 -46 -163 -59 -210 -13
-47 -37 -132 -54 -189 -17 -57 -33 -114 -36 -125 -2 -12 -31 -115 -65 -231
-34 -115 -63 -221 -66 -235 -5 -24 -30 -110 -41 -140 -4 -8 -8 -24 -10 -34 -2
-11 -17 -67 -34 -125 -17 -58 -33 -113 -35 -121 -12 -49 -52 -187 -57 -200 -4
-8 -9 -26 -11 -40 -3 -14 -5 -25 -6 -25 -1 0 -3 -7 -5 -15 -2 -8 -36 -127 -75
-265 -39 -137 -74 -261 -76 -274 -3 -14 -8 -29 -12 -35 -3 -6 -7 -15 -8 -21
-5 -33 -48 -182 -55 -191 -5 -6 -7 -13 -4 -16 3 -2 -6 -38 -19 -79 -13 -41
-27 -87 -31 -104 -5 -16 -9 -34 -11 -40 -1 -5 -17 -59 -34 -120 -17 -60 -32
-117 -35 -125 -2 -8 -18 -64 -35 -123 -17 -60 -33 -116 -35 -125 -2 -9 -13
-48 -25 -87 -31 -103 -60 -207 -66 -235 -2 -14 -8 -34 -13 -45 -5 -11 -28 -90
-51 -175 -23 -85 -45 -166 -50 -180 -8 -22 -29 -95 -36 -125 -2 -12 -166 -589
-194 -685 -10 -36 -27 -92 -36 -125 -10 -33 -19 -64 -20 -70 0 -5 -4 -17 -7
-25 -5 -13 -45 -157 -52 -185 -1 -5 -5 -17 -8 -25 -4 -8 -9 -26 -11 -40 -3
-14 -5 -26 -7 -27 -1 -2 -2 -6 -3 -10 -11 -41 -31 -110 -48 -168 -12 -38 -23
-77 -24 -85 -1 -8 -21 -78 -43 -155 -23 -77 -43 -149 -45 -160 -2 -11 -11 -40
-19 -65 -8 -25 -18 -61 -22 -80 -4 -19 -10 -39 -13 -45 -4 -5 -8 -19 -9 -30
-2 -11 -10 -41 -18 -66 -9 -25 -17 -54 -20 -65 -2 -10 -15 -57 -28 -104 -13
-47 -27 -94 -30 -105 -3 -11 -22 -76 -42 -145 -20 -69 -37 -132 -39 -140 -8
-31 -125 -436 -131 -452 -7 -17 7 -18 207 -18 l214 0 21 77 c12 43 33 119 48
168 15 50 28 97 30 105 2 8 15 58 30 110 15 52 28 100 30 105 1 6 4 17 7 25 6
15 75 260 83 290 3 15 103 366 109 385 2 6 6 17 9 25 3 8 8 29 11 45 7 34 14
59 16 63 2 1 3 5 4 10 5 15 29 103 67 237 22 77 51 178 64 225 13 47 39 141
59 210 20 69 39 132 41 140 2 8 24 87 49 175 26 88 49 169 51 180 3 11 19 67
35 125 28 94 75 261 85 300 2 8 4 15 5 15 1 0 3 8 5 18 3 18 27 99 50 172 7
22 15 54 18 72 3 17 8 37 12 42 3 6 8 20 11 31 2 11 6 29 8 40 3 11 8 25 11
30 3 5 8 19 10 29 2 11 29 109 60 218 31 109 58 203 59 208 2 6 8 30 15 55 7
25 15 52 16 60 3 14 15 54 65 220 11 36 20 72 20 81 0 8 5 20 12 27 7 7 9 12
6 12 -3 0 5 37 19 83 13 45 26 90 28 101 2 10 12 44 21 75 9 31 17 61 18 66 2
6 9 30 16 55 16 54 14 47 40 140 12 41 23 82 25 90 2 8 4 15 5 15 1 0 3 7 5
15 1 8 21 80 44 160 23 80 48 170 57 200 9 30 18 62 21 70 7 18 6 12 22 80 7
30 15 62 18 70 8 21 14 43 15 58 1 6 4 12 8 12 3 0 6 8 7 18 1 10 20 83 43
163 23 79 43 151 45 159 2 8 16 56 30 105 15 50 28 97 30 105 2 8 15 56 30
105 14 50 28 97 30 105 2 8 12 42 21 75 9 33 17 65 19 70 1 6 5 17 8 25 5 14
17 59 23 87 2 13 36 127 61 208 8 28 17 57 18 65 2 8 14 49 25 90 12 41 24 82
26 90 2 8 11 40 20 70 8 30 17 62 19 70 2 8 4 15 5 15 1 0 3 7 5 15 1 8 6 27
10 43 l7 27 -211 0 -210 0 -10 -37z"/>
<path d="M10083 11263 c-4 -16 -8 -30 -8 -33 -1 -3 -4 -12 -8 -20 -5 -13 -62
-215 -111 -395 -8 -27 -26 -93 -41 -145 -26 -91 -61 -219 -70 -250 -2 -8 -15
-55 -30 -105 -15 -49 -33 -112 -40 -140 -8 -27 -21 -75 -30 -105 -9 -30 -17
-62 -19 -70 -4 -17 -40 -140 -64 -220 -9 -30 -17 -59 -18 -65 -3 -18 -107
-383 -124 -437 -5 -16 -6 -28 -3 -28 3 0 1 -6 -4 -12 -6 -7 -16 -38 -23 -68
-7 -30 -15 -59 -19 -65 -3 -5 -6 -14 -7 -20 -3 -16 -40 -151 -84 -305 -23 -80
-45 -161 -49 -181 l-8 -37 2564 0 c1964 0 2563 3 2563 12 0 7 -9 52 -19 101
-11 50 -22 104 -25 120 -3 17 -10 53 -16 80 -7 28 -14 64 -17 80 -3 17 -6 35
-8 40 -3 17 -16 79 -20 100 -2 11 -4 20 -5 20 -1 0 -4 13 -6 30 -3 16 -19 93
-35 170 -17 77 -31 149 -33 160 -2 11 -6 34 -10 50 -3 17 -8 40 -11 53 -2 13
-6 31 -9 40 -3 9 -8 33 -11 52 -9 59 -47 235 -51 242 -3 4 25 47 62 95 155
201 199 258 204 263 3 3 32 41 65 85 32 44 61 82 65 85 3 3 25 32 50 65 25 33
47 62 51 65 3 3 44 57 93 120 48 63 98 129 111 145 12 17 89 116 169 220 80
105 153 198 161 208 8 9 15 19 15 22 0 3 -1154 5 -2565 5 l-2565 0 -7 -27z"/>
<path d="M20 8132 c-7 -3 -10 -707 -10 -2088 l0 -2084 3310 0 c3299 0 3309 0
3320 20 6 11 8 20 5 20 -3 0 -1 8 4 19 6 10 13 31 16 47 3 16 23 90 45 164 21
74 37 136 35 139 -3 2 -1425 4 -3162 5 l-3158 1 -1 1673 -1 1672 31 1 c17 0
1654 0 3638 1 l3607 0 11 33 c6 17 13 41 15 51 2 10 24 88 48 172 24 83 44
152 43 153 -3 3 -7788 3 -7796 1z"/>
<path d="M9243 8127 c-4 -7 -18 -53 -38 -127 -2 -8 -13 -46 -25 -85 -11 -38
-22 -77 -24 -86 -3 -9 -9 -34 -15 -55 -6 -22 -11 -42 -11 -45 0 -4 1277 -7
2838 -7 1560 -1 2847 -1 2858 -1 l21 -1 -1 -1672 -1 -1673 -3325 -2 c-1829 -1
-3330 -2 -3336 -2 -10 -1 -24 -33 -25 -56 0 -3 -6 -23 -14 -46 -9 -23 -17 -51
-19 -63 -2 -12 -18 -70 -35 -130 -17 -60 -31 -111 -31 -113 0 -2 1620 -3 3600
-3 l3600 0 0 2088 0 2087 -3006 0 c-1653 0 -3008 -4 -3011 -8z"/>
<path d="M9995 7022 c-2 -2 -20 -5 -41 -8 -84 -9 -153 -27 -239 -61 -49 -20
-91 -40 -93 -44 -2 -5 -8 -9 -14 -9 -34 0 -184 -127 -259 -220 -84 -104 -161
-293 -176 -430 -9 -86 -6 -223 7 -285 6 -27 12 -59 14 -70 9 -48 62 -175 98
-234 40 -66 113 -160 136 -174 7 -5 20 -16 30 -26 81 -86 289 -187 425 -207
15 -2 39 -6 55 -9 59 -11 254 -5 312 11 14 4 34 8 45 9 65 9 182 59 265 115
67 44 177 149 222 210 l26 35 -31 23 c-18 13 -97 70 -177 127 l-145 104 -50
-49 c-76 -75 -89 -86 -123 -101 -18 -8 -32 -17 -32 -21 0 -5 -11 -8 -25 -8
-14 0 -25 -4 -25 -8 0 -9 -16 -11 -120 -16 -80 -3 -147 12 -208 45 -53 29
-133 116 -161 174 -13 28 -27 57 -31 65 -10 20 -23 112 -24 165 -1 35 3 67 18
151 9 47 64 142 111 191 101 105 253 145 396 104 85 -24 136 -54 207 -123 l58
-57 28 22 c15 12 45 36 66 52 21 17 51 40 66 52 16 12 58 45 94 73 35 28 71
55 79 60 12 6 11 12 -8 36 -35 45 -114 126 -156 159 -55 44 -182 112 -245 131
-30 9 -62 18 -70 21 -19 7 -31 9 -110 17 -36 4 -70 9 -76 11 -6 2 -17 -1 -24
-5 -8 -5 -18 -6 -24 -3 -10 7 -65 10 -71 5z"/>
<path d="M1348 6981 c0 -3 -2 -389 -3 -858 l-1 -851 238 -1 238 0 1 47 c0 61
0 1620 0 1649 -1 22 -1 22 -236 21 -129 0 -236 -3 -237 -7z"/>
<path d="M10922 6971 c-6 -12 -8 -350 -3 -393 1 -4 97 -7 214 -7 116 0 232 -1
257 -1 l45 0 0 -648 0 -647 235 0 235 0 2 643 c1 354 4 646 6 649 3 2 118 4
255 4 190 0 251 2 254 12 3 10 2 319 -1 384 l-1 23 -745 -1 c-682 -1 -746 -3
-753 -18z"/>
<path d="M12632 6130 l0 -859 236 2 237 2 1 285 c1 157 2 294 3 305 1 20 7 20
402 20 312 0 403 2 411 12 6 7 7 13 2 13 -9 0 -9 82 0 106 3 8 2 14 -2 14 -6
0 -8 85 -2 100 1 3 2 9 1 14 -7 34 -6 78 1 82 5 3 5 11 1 17 -4 7 -8 17 -8 22
0 6 -143 11 -402 13 l-403 2 -1 25 c-4 94 -3 248 2 256 3 5 200 10 450 11
l444 3 0 205 0 205 -687 2 -686 2 0 -859z"/>
<path d="M2855 6610 c-89 -25 -140 -55 -213 -126 -37 -35 -67 -64 -68 -64 0 0
0 33 1 73 2 116 26 105 -236 105 l-229 1 0 -42 c-1 -56 -1 -1201 -1 -1249 l1
-38 232 3 232 2 1 390 c1 372 2 392 22 436 64 142 267 149 334 12 23 -48 24
-52 25 -438 1 -214 3 -393 3 -396 1 -4 105 -7 231 -8 213 -1 230 0 231 16 0
10 1 214 1 453 1 425 -2 501 -21 568 -5 18 -10 35 -10 37 0 24 -70 134 -104
166 -43 40 -138 92 -192 105 -60 14 -180 11 -240 -6z"/>
<path d="M4376 6600 c-78 -28 -136 -67 -202 -137 -22 -24 -43 -43 -45 -43 -2
0 -4 39 -4 88 l0 87 -230 0 -230 0 -1 -661 -1 -662 233 -1 233 0 0 382 c-1
426 3 455 65 509 92 82 240 57 292 -49 18 -35 19 -69 22 -439 l3 -402 233 -1
233 0 -3 482 c-1 265 -4 496 -7 512 -30 167 -137 293 -287 341 -40 12 -60 15
-148 17 -67 2 -96 -2 -156 -23z"/>
<path d="M5806 6623 c-1 -1 -19 -5 -39 -7 -20 -3 -55 -10 -79 -17 -24 -7 -48
-13 -54 -15 -6 -1 -41 -16 -78 -34 -106 -51 -203 -133 -266 -225 -19 -27 -39
-53 -45 -57 -5 -4 -7 -8 -3 -8 4 0 -4 -23 -18 -51 -65 -128 -76 -359 -25 -494
36 -97 91 -185 155 -251 155 -159 332 -227 566 -219 111 4 121 5 208 31 332
96 548 432 492 766 -31 182 -117 322 -278 450 -59 47 -214 110 -307 124 -48 7
-223 13 -229 7z m171 -401 c10 -5 30 -15 44 -22 36 -16 97 -76 116 -114 81
-157 23 -356 -123 -423 -86 -39 -165 -36 -249 9 -133 72 -183 245 -115 403 41
95 128 151 240 154 38 1 77 -2 87 -7z"/>
</g>
</svg>
