<?xml version="1.0" standalone="no"?>
<!DOCTYPE svg PUBLIC "-//W3C//DTD SVG 20010904//EN"
 "http://www.w3.org/TR/2001/REC-SVG-20010904/DTD/svg10.dtd">
<svg version="1.0" xmlns="http://www.w3.org/2000/svg"
 width="904.000000pt" height="904.000000pt" viewBox="0 0 904.000000 904.000000"
 preserveAspectRatio="xMidYMid meet">
<metadata>
Created by potrace 1.11, written by Peter Selinger 2001-2013
</metadata>
<g transform="translate(0.000000,904.000000) scale(0.100000,-0.100000)"
fill="#000000" stroke="none">
<path d="M3170 7859 c-482 -15 -1297 -54 -1367 -65 -17 -2 -61 -27 -97 -55
l-66 -51 0 -152 c0 -83 3 -229 7 -325 l6 -173 36 5 c20 3 156 28 302 56 1523
289 3245 476 4884 531 515 17 535 19 535 40 0 10 -13 28 -28 39 -23 16 -60 23
-203 35 -629 56 -1289 94 -2033 116 -375 11 -1611 11 -1976 -1z m890 -77 c0
-44 3 -140 7 -215 6 -135 6 -137 -15 -137 -18 0 -23 8 -28 40 -4 22 -12 44
-19 50 -8 7 -94 7 -265 0 l-253 -9 -31 -28 c-17 -15 -61 -56 -97 -91 l-65 -63
-168 -25 c-93 -14 -172 -24 -177 -22 -5 2 68 77 163 168 l172 165 365 0 366 0
0 50 0 50 -50 -1 c-27 -1 -202 -8 -388 -15 l-338 -13 -227 -217 -227 -218
-255 0 -255 0 -255 235 c-140 129 -261 241 -269 249 -26 25 25 43 141 51 l107
7 108 -100 c277 -255 319 -283 430 -283 126 0 158 20 390 244 l152 146 466 0
466 0 6 30 c4 21 11 30 24 30 17 0 19 -8 19 -78z m634 62 c3 -9 6 -89 6 -179
l0 -164 -42 -5 c-163 -22 -494 -53 -499 -48 -8 9 -19 399 -11 407 3 3 126 5
273 5 234 0 268 -2 273 -16z m128 -16 c3 -20 8 -23 48 -21 25 2 241 6 480 9
411 6 908 -7 980 -26 22 -6 19 -9 -35 -39 l-60 -32 -700 2 -700 1 -5 -23 c-8
-34 0 -77 16 -83 7 -3 66 -1 131 5 65 5 384 13 710 18 l592 8 122 68 121 67
104 -7 c57 -4 104 -10 104 -14 0 -3 -52 -34 -114 -67 l-114 -62 -198 -11
c-310 -18 -792 -50 -984 -66 -96 -8 -243 -15 -327 -15 -127 0 -155 -3 -159
-15 -4 -8 -17 -15 -30 -15 l-24 0 0 170 c0 161 1 170 19 170 13 0 21 -8 23
-22z m-1834 4 c-4 -10 -241 -231 -293 -272 -86 -69 -156 -85 -231 -51 -39 18
-156 112 -284 229 l-64 59 84 6 c82 7 85 6 113 -21 44 -42 70 -81 87 -136 12
-36 26 -58 50 -74 69 -46 114 -42 154 16 59 85 12 172 -94 172 -27 0 -48 8
-67 24 -15 13 -26 27 -23 29 3 3 111 9 240 14 337 14 332 14 328 5z m4154 -98
c26 -4 45 -11 42 -15 -3 -5 -31 -22 -62 -38 -54 -27 -66 -29 -237 -35 -99 -4
-177 -4 -173 0 4 4 45 29 90 56 l83 48 105 -5 c58 -3 126 -8 152 -11z m258
-65 c0 -5 -32 -9 -72 -9 -77 0 -78 1 -21 36 l37 22 28 -20 c16 -10 28 -24 28
-29z m-4836 9 c20 -29 20 -47 -1 -70 -33 -37 -103 -14 -103 34 0 54 74 79 104
36z m-602 -253 c203 -186 280 -262 269 -266 -9 -3 -62 -14 -118 -23 l-103 -18
-157 142 c-224 202 -203 171 -203 304 0 107 4 130 21 124 4 -2 135 -120 291
-263z m1968 -2 c8 -3 -95 -20 -230 -38 -135 -18 -247 -31 -250 -28 -3 3 13 20
35 39 35 29 48 34 105 37 81 4 320 -3 340 -10z m-2140 -205 c65 -62 117 -114
115 -116 -5 -5 -124 -31 -143 -32 -7 0 -33 19 -57 41 l-45 42 0 88 c0 49 3 89
6 89 3 0 59 -51 124 -112z"/>
<path d="M1163 7801 c-35 -29 -63 -60 -63 -69 0 -123 22 -884 30 -1027 65
-1199 220 -2186 480 -3054 327 -1092 821 -1948 1521 -2638 231 -227 413 -380
667 -561 194 -139 557 -362 695 -428 l35 -17 149 83 c795 446 1411 999 1895
1700 700 1016 1119 2361 1293 4150 42 432 61 813 80 1561 l6 246 -63 53 -63
53 -6 -114 c-4 -63 -7 -204 -8 -314 -2 -383 -32 -911 -77 -1365 -92 -940 -274
-1804 -528 -2508 -511 -1411 -1305 -2380 -2526 -3082 -80 -46 -150 -83 -155
-83 -19 0 -347 194 -505 298 -807 534 -1402 1211 -1849 2105 -476 951 -739
1996 -876 3480 -25 262 -54 858 -56 1115 -1 110 -4 260 -8 334 l-6 134 -62
-52z"/>
<path d="M7120 7343 c-36 -1 -191 -7 -345 -13 -1690 -63 -3303 -248 -4965
-567 l-145 -28 2 -35 c2 -19 7 -107 13 -195 11 -166 42 -504 61 -660 26 -227
102 -735 114 -772 3 -8 61 11 177 58 1405 574 3091 980 5126 1233 106 13 196
27 199 30 10 10 30 345 48 799 l7 157 -114 -2 c-62 -1 -142 -3 -178 -5z m210
-17 c0 -2 -48 -30 -107 -61 -158 -84 -607 -341 -685 -391 -38 -24 -68 -48 -68
-53 0 -28 49 -34 235 -33 236 2 337 -9 404 -42 112 -57 201 -11 201 104 0 33
-6 48 -29 71 -42 42 -98 40 -188 -6 -72 -37 -80 -38 -287 -36 -53 1 -77 4 -70
11 12 12 635 360 645 360 7 0 4 -103 -11 -417 -6 -105 -10 -208 -10 -228 0
-30 -8 -45 -39 -76 l-39 -39 -312 0 -313 0 -209 -116 -209 -116 -321 -54
c-177 -30 -323 -52 -325 -50 -5 4 129 77 317 172 125 64 139 68 193 67 70 -3
110 15 137 60 20 32 26 83 12 103 -4 6 -25 23 -46 38 -63 43 -129 31 -167 -31
-41 -65 -150 -137 -544 -356 l-210 -117 -195 -39 c-295 -60 -534 -114 -868
-197 -167 -41 -306 -73 -309 -70 -3 3 33 45 79 93 97 101 105 114 125 197 26
117 122 217 220 232 70 10 105 47 111 115 3 45 0 59 -18 82 -19 24 -28 27 -76
27 -82 0 -110 -19 -130 -88 -19 -64 -54 -120 -109 -172 -52 -49 -95 -118 -95
-154 0 -49 -43 -128 -100 -184 -48 -47 -94 -72 -163 -87 -44 -9 -89 -56 -96
-101 -6 -35 -10 -40 -43 -48 -44 -11 45 -87 -701 598 -488 447 -586 541 -570
547 38 14 662 113 669 106 12 -12 -44 -85 -98 -128 -57 -45 -87 -60 -158 -81
-51 -15 -90 -63 -90 -109 0 -60 76 -110 152 -101 35 4 76 43 83 79 11 53 45
108 118 190 40 45 82 101 92 125 10 24 20 45 22 47 2 3 70 14 152 26 l149 21
-63 -68 c-72 -78 -95 -120 -95 -174 0 -50 -37 -111 -101 -167 -61 -53 -99 -74
-153 -82 -53 -9 -106 -61 -106 -104 0 -76 59 -127 137 -118 54 6 80 28 94 81
16 60 49 112 125 196 71 80 103 137 104 185 0 17 8 44 18 60 23 37 168 192
193 205 19 11 350 55 664 89 105 12 206 24 226 27 l37 5 4 -64 c3 -49 12 -81
37 -128 39 -75 161 -267 204 -323 l30 -38 501 4 501 3 155 84 c282 153 843
462 985 544 104 60 153 83 190 88 58 7 205 11 205 5z m-465 -29 c-22 -15 -652
-362 -923 -509 l-167 -90 -275 -9 c-151 -4 -363 -8 -472 -9 l-196 0 -71 114
c-118 192 -179 332 -155 356 23 23 1216 119 1479 120 176 0 470 17 510 29 17
5 88 10 160 10 111 1 127 -1 110 -12z m369 -423 c32 -31 7 -94 -37 -94 -27 0
-57 28 -57 53 0 48 61 74 94 41z m-4835 -227 c102 -96 384 -355 626 -576 242
-222 441 -406 443 -411 3 -9 -104 -43 -118 -38 -10 3 -59 48 -779 706 -273
249 -495 456 -494 460 1 6 70 22 127 31 4 0 92 -77 195 -172z m205 -468 c350
-321 636 -587 636 -590 0 -4 -25 -15 -56 -24 l-55 -16 -161 148 c-458 420
-695 631 -734 651 -39 21 -47 -5 -52 -171 l-5 -152 318 -290 317 -290 -29 -12
c-40 -17 -46 -16 -88 17 -53 42 -69 37 -75 -25 l-5 -49 -75 -28 c-88 -33 -80
-31 -80 -14 0 33 -50 74 -102 85 -88 19 -136 56 -435 333 l-171 158 -7 78 c-3
42 -8 87 -11 100 -5 27 1 28 33 2 36 -28 83 -34 127 -16 28 12 42 26 57 62 26
59 20 84 -32 120 -34 23 -52 29 -90 28 -35 -2 -49 2 -54 14 -3 8 -8 101 -12
206 -4 144 -9 195 -20 207 -13 15 -5 19 89 37 57 11 110 19 119 17 9 -1 303
-265 653 -586z m230 488 c38 -28 13 -97 -34 -97 -26 0 -60 30 -60 52 0 48 55
74 94 45z m3346 -127 c11 -11 20 -27 20 -35 0 -22 -37 -55 -60 -55 -23 0 -60
33 -60 55 0 22 37 55 60 55 11 0 29 -9 40 -20z m-1783 -90 c13 -27 3 -54 -30
-74 -23 -15 -71 12 -75 43 -9 57 79 83 105 31z m-1318 -14 c20 -24 9 -69 -20
-85 -24 -13 -29 -13 -53 2 -31 21 -36 70 -8 86 25 15 68 13 81 -3z m4199 -32
c-4 -3 -127 -21 -274 -40 -147 -19 -326 -43 -398 -53 -72 -10 -132 -17 -134
-16 -2 2 38 25 90 52 l93 48 260 5 c143 3 284 7 314 8 30 1 52 -1 49 -4z
m-5393 -194 c35 -39 -7 -99 -61 -86 -14 4 -30 17 -36 31 -25 56 54 102 97 55z
m461 -84 c90 -67 674 -593 674 -607 0 -8 -86 -39 -107 -39 -24 0 -554 504
-614 584 -28 38 -41 106 -20 106 5 0 35 -20 67 -44z m1458 -346 c14 -5 26 -14
26 -19 0 -7 -72 -31 -94 -31 -15 0 -4 31 16 44 27 19 21 18 52 6z m-1707 -323
c111 -114 124 -131 137 -193 6 -28 4 -32 -21 -40 -15 -4 -71 -8 -124 -8 -87
-1 -99 -3 -138 -29 -25 -17 -49 -43 -57 -64 -9 -19 -17 -34 -19 -32 -10 11
-34 181 -29 206 3 18 -1 45 -11 69 -13 32 -64 341 -65 393 0 16 171 -142 327
-302z m285 -114 c30 -27 22 -47 -26 -64 -50 -18 -66 -11 -66 27 0 48 55 70 92
37z"/>
<path d="M3764 6955 c-20 -22 -36 -50 -39 -73 -10 -59 -19 -74 -93 -155 -78
-84 -102 -122 -102 -165 0 -94 -161 -261 -253 -262 -58 0 -107 -59 -107 -128
0 -76 53 -110 140 -91 56 13 76 31 85 77 11 59 33 92 116 178 84 87 109 130
109 192 0 90 143 232 234 232 32 0 85 45 102 87 20 48 -1 95 -55 122 -61 32
-97 28 -137 -14z m126 -45 c11 -11 20 -27 20 -35 0 -22 -37 -55 -60 -55 -23 0
-60 33 -60 55 0 22 37 55 60 55 11 0 29 -9 40 -20z m-558 -705 c18 -40 -3 -75
-45 -75 -40 0 -57 15 -57 50 0 35 17 50 57 50 26 0 36 -6 45 -25z"/>
<path d="M4050 6749 c-46 -18 -80 -60 -80 -97 0 -40 -21 -72 -110 -168 -62
-67 -90 -120 -90 -168 0 -28 -39 -95 -83 -143 -47 -51 -106 -88 -157 -98 -57
-12 -86 -32 -105 -71 -32 -68 -4 -138 61 -150 83 -15 165 32 166 96 1 50 17
76 98 155 90 89 106 116 115 192 9 77 41 125 126 188 41 30 74 46 107 51 78
12 122 72 108 150 -12 59 -87 90 -156 63z m96 -74 c15 -23 15 -27 0 -49 -8
-14 -25 -27 -36 -31 -28 -9 -70 20 -70 47 0 56 76 79 106 33z m-574 -682 c35
-32 13 -93 -34 -93 -49 0 -74 56 -41 92 20 22 51 23 75 1z"/>
<path d="M5407 6509 c-9 -5 -35 -34 -57 -64 -67 -91 -169 -125 -376 -125 -139
0 -203 -14 -303 -67 -78 -41 -91 -45 -135 -39 -81 9 -146 -41 -146 -114 0 -31
7 -44 35 -68 39 -35 95 -50 130 -34 28 13 65 61 80 103 13 39 97 93 180 114
32 8 102 15 155 15 148 1 227 14 309 50 71 31 79 32 153 25 l79 -6 33 35 c42
44 51 77 31 117 -30 56 -118 87 -168 58z m108 -65 c24 -25 15 -66 -18 -82 -24
-12 -31 -11 -53 2 -26 18 -33 63 -12 84 17 17 64 15 83 -4z m-965 -314 c11
-11 20 -27 20 -35 0 -22 -37 -55 -60 -55 -24 0 -60 34 -60 57 0 25 30 53 57
53 12 0 32 -9 43 -20z"/>
<path d="M5440 7037 c-52 -30 -60 -32 -155 -32 -80 0 -107 4 -135 19 -50 27
-96 36 -136 24 -65 -18 -96 -108 -54 -160 44 -57 125 -61 200 -12 36 24 56 30
119 32 77 4 82 3 234 -55 35 -13 51 -15 65 -7 22 14 61 71 68 101 9 34 -15 83
-50 104 -45 28 -93 24 -156 -14z m145 -47 c35 -39 -7 -99 -61 -86 -14 4 -30
17 -36 31 -25 56 54 102 97 55z m-487 -6 c28 -20 30 -69 3 -84 -45 -23 -91 -1
-91 45 0 23 32 55 55 55 6 0 21 -7 33 -16z"/>
<path d="M7055 5884 c-1823 -254 -3360 -633 -4605 -1138 l-84 -34 69 -21 c39
-11 174 -49 300 -84 1290 -360 2597 -841 3672 -1351 100 -47 186 -86 191 -86
18 0 169 368 261 635 186 539 337 1218 420 1895 12 91 23 177 26 193 2 15 1
26 -3 26 -4 -1 -115 -16 -247 -35z m235 -17 c0 -26 -10 -42 -43 -75 l-43 -42
-465 -9 -464 -8 -80 -40 c-44 -23 -242 -130 -440 -238 -198 -108 -426 -233
-507 -277 l-147 -80 -545 -10 c-538 -9 -545 -9 -591 11 -44 19 -144 90 -145
102 0 3 28 13 61 23 53 14 64 15 78 3 14 -12 104 -13 591 -8 l575 6 100 54
c55 30 240 132 410 226 171 95 325 180 344 189 34 18 154 40 514 96 157 25
205 29 229 21 51 -18 94 -13 126 13 25 22 53 28 203 49 96 14 189 25 207 26
30 1 32 -1 32 -32z m-24 -199 c-3 -13 -10 -65 -17 -115 l-12 -93 -104 -102
c-57 -57 -109 -105 -116 -109 -7 -3 -133 -9 -280 -13 l-269 -7 -256 -141
c-142 -77 -402 -221 -579 -320 l-323 -179 -562 -5 -563 -6 -295 270 c-162 148
-296 274 -297 279 -2 5 23 18 56 28 l60 18 93 -86 93 -86 300 5 c165 3 444 9
620 14 l320 9 100 52 c143 74 477 258 781 430 l262 148 481 7 c265 4 484 11
487 16 11 17 24 7 20 -14z m-1546 -16 c0 -4 -139 -84 -308 -178 l-308 -171
-480 -6 c-269 -4 -472 -3 -464 2 25 14 455 121 488 121 21 0 43 -10 65 -30 19
-16 45 -30 58 -30 41 0 89 37 110 85 11 25 23 45 28 45 4 0 79 16 167 36 87
20 181 36 209 36 29 -1 56 5 65 13 11 10 254 66 363 84 4 0 7 -2 7 -7z m-860
-192 c0 -18 -40 -50 -63 -50 -27 0 -65 25 -55 35 18 19 118 31 118 15z m2346
-197 c-13 -93 -67 -378 -76 -400 -10 -24 -63 -43 -121 -43 -84 0 -146 -31
-819 -403 l-435 -241 -775 -8 -775 -7 -75 25 -75 25 -425 390 c-234 215 -425
395 -425 402 0 6 14 15 32 20 31 9 36 5 435 -363 l403 -373 634 7 635 7 300
168 c656 366 792 436 902 467 73 20 101 15 150 -28 43 -38 89 -42 150 -12 52
26 69 62 51 107 -33 79 -125 102 -201 51 -30 -21 -54 -27 -119 -32 -79 -5 -89
-8 -262 -97 -99 -50 -364 -194 -590 -320 l-410 -229 -553 -4 c-304 -2 -577 -1
-607 3 -50 6 -61 12 -163 103 -195 174 -632 576 -632 583 0 3 29 14 65 24 l65
17 37 -33 c21 -18 126 -112 233 -210 107 -97 239 -215 294 -263 l98 -86 587 0
586 0 120 66 c66 36 328 181 583 321 l463 255 280 9 280 8 57 49 c31 28 66 59
76 71 11 11 21 21 24 21 2 0 1 -21 -2 -47z m-388 -239 c44 -31 16 -104 -40
-104 -26 0 -58 36 -58 64 0 26 33 56 60 56 9 0 26 -7 38 -16z m-3401 -329
c400 -376 434 -408 430 -412 -2 -1 -93 26 -203 61 -109 36 -238 76 -285 90
-81 25 -90 30 -151 94 -79 82 -96 107 -111 168 -15 59 -48 85 -116 92 -47 4
-53 2 -86 -31 -29 -29 -35 -42 -35 -79 0 -33 6 -50 23 -66 29 -27 69 -42 115
-42 24 0 47 -8 67 -25 17 -13 26 -24 20 -24 -5 -1 -93 23 -195 52 l-185 54 -3
98 c-1 54 1 102 5 106 10 10 395 149 405 146 3 -1 141 -128 305 -282z m-797
29 c0 -58 -3 -75 -13 -71 -7 3 -49 15 -92 27 -44 12 -86 25 -94 30 -8 4 23 22
85 48 55 22 102 41 107 41 4 1 7 -33 7 -75z m395 1 c30 -29 31 -49 5 -75 -27
-27 -75 -26 -94 2 -23 32 -20 54 10 77 34 27 50 26 79 -4z m4085 -7 c0 -38
-38 -170 -52 -184 -12 -11 -1524 -839 -1554 -851 -23 -9 -376 139 -417 174
-35 31 -54 37 -104 33 -12 -1 -100 28 -195 63 -95 36 -216 80 -268 99 l-95 33
685 6 685 5 265 151 c826 469 864 488 1008 492 37 1 42 -1 42 -21z m-70 -302
c0 -22 -24 -44 -215 -202 -149 -124 -580 -521 -600 -554 -13 -20 -161 -11
-242 15 -106 34 -128 32 -170 -10 -31 -31 -35 -40 -30 -70 3 -19 2 -35 -3 -35
-15 0 -180 72 -180 79 0 3 186 107 412 231 227 124 548 300 713 392 165 92
303 167 308 167 4 1 7 -5 7 -13z m-40 -144 c0 -14 -50 -183 -102 -345 l-50
-158 -107 -103 c-58 -57 -143 -136 -189 -175 l-82 -71 -188 0 -187 0 -87 37
c-49 20 -88 40 -88 44 0 3 27 19 61 33 62 29 147 45 234 46 l50 1 360 349
c198 192 363 349 368 349 4 1 7 -3 7 -7z m-1068 -629 c47 -42 -6 -116 -67 -93
-27 10 -46 45 -37 70 13 40 71 53 104 23z m774 -239 c-68 -163 -88 -202 -110
-210 -7 -3 -82 28 -166 68 l-154 73 49 7 c28 3 80 7 117 7 61 1 70 4 115 40
26 21 84 72 128 114 44 41 81 71 83 66 2 -5 -26 -79 -62 -165z"/>
<path d="M6695 5529 c-28 -25 -48 -33 -107 -40 -190 -25 -202 -28 -317 -84
-63 -31 -320 -171 -572 -311 l-458 -255 -448 3 -448 3 -83 34 c-70 29 -86 32
-107 23 -30 -14 -85 -97 -85 -128 0 -28 57 -76 110 -94 37 -12 41 -11 87 18
26 17 69 36 95 41 26 6 222 15 435 21 214 5 411 12 438 16 58 7 160 59 655
332 184 102 382 208 440 236 104 51 105 51 200 50 83 0 105 -4 173 -32 101
-41 129 -41 158 -1 30 42 37 111 15 145 -39 59 -127 70 -181 23z m133 -47 c29
-37 0 -92 -48 -92 -35 0 -62 31 -58 66 5 50 74 66 106 26z m-2594 -645 c29
-21 18 -79 -18 -96 -25 -12 -31 -11 -55 6 -14 11 -27 30 -29 42 -7 48 59 79
102 48z"/>
<path d="M2020 4347 c0 -7 23 -92 50 -187 397 -1368 1051 -2347 2035 -3045
131 -93 352 -235 399 -256 22 -10 34 -7 98 31 120 71 365 237 488 331 388 296
715 634 1007 1041 119 165 333 513 322 522 -10 8 -356 169 -564 261 -1061 472
-2205 872 -3520 1229 -154 42 -288 79 -297 82 -11 3 -18 0 -18 -9z m326 -94
c200 -54 281 -80 274 -87 -7 -7 -85 -12 -203 -14 l-192 -3 -95 90 c-52 49 -89
90 -82 91 8 0 142 -35 298 -77z m422 -118 c58 -18 66 -35 27 -61 -46 -30 -105
7 -90 56 4 11 7 20 9 20 1 0 26 -7 54 -15z m-365 -70 l222 0 38 -27 c79 -56
163 -44 208 29 l20 32 52 -15 c88 -26 337 -102 432 -132 l90 -28 -394 -7
c-217 -4 -510 -7 -651 -7 l-257 0 -31 104 c-18 57 -32 110 -32 117 0 7 18 -5
40 -26 l41 -40 222 0z m1383 -242 l49 -17 -45 -8 c-25 -4 -51 -15 -57 -25 -19
-25 -17 -127 2 -143 13 -10 79 -12 314 -7 268 5 304 4 345 -11 25 -10 48 -21
52 -25 4 -4 -80 -7 -187 -8 -237 -1 -306 -8 -326 -35 -20 -26 -12 -119 11
-142 20 -20 124 -22 504 -9 l232 8 0 -31 0 -30 -232 0 c-128 0 -243 -3 -255
-6 -20 -5 -23 -13 -23 -53 0 -25 5 -63 11 -83 11 -41 14 -43 114 -53 110 -11
92 -40 -25 -39 -100 1 -124 17 -440 304 l-193 175 -191 5 c-190 6 -191 6 -257
38 -74 36 -86 38 -134 18 -41 -17 -75 -68 -75 -113 0 -42 41 -90 90 -103 43
-12 68 -5 130 36 38 25 49 27 216 35 l175 9 212 -193 c255 -233 306 -273 360
-288 56 -15 260 -7 281 10 12 10 16 32 16 82 0 95 -14 109 -114 109 -69 0 -99
10 -81 28 4 4 107 9 230 12 272 6 261 0 250 121 l-7 82 -369 -7 -369 -7 0 25
0 25 323 3 322 4 155 -57 155 -56 8 -37 c10 -40 21 -43 70 -22 31 12 39 11
121 -22 48 -19 84 -37 82 -40 -3 -3 -212 -119 -463 -259 l-457 -253 -363 0
-363 0 0 35 c0 35 0 35 44 35 l44 0 7 93 c4 50 5 163 3 250 -2 126 -6 160 -18
168 -17 11 -345 7 -371 -5 -25 -11 -29 -49 -29 -291 l0 -223 48 -8 c41 -8 47
-12 50 -37 l3 -27 -169 0 c-93 0 -216 -3 -273 -6 l-104 -5 -95 87 c-222 203
-211 190 -284 349 -37 81 -66 150 -64 155 4 12 253 -219 307 -285 23 -27 44
-61 48 -75 16 -67 76 -110 151 -110 53 0 85 34 85 90 0 51 -29 84 -92 105 -64
21 -134 76 -378 296 l-212 191 -45 125 c-25 69 -46 131 -46 139 0 12 78 14
503 17 276 1 622 3 768 5 228 2 272 0 315 -15z m329 -114 c28 -13 24 -14 -80
-17 -123 -4 -235 5 -235 18 0 22 268 22 315 -1z m-983 -126 c36 -32 13 -93
-36 -93 -34 0 -58 23 -58 55 0 49 56 72 94 38z m477 -465 c-1 -90 -4 -174 -8
-188 -7 -25 -8 -25 -129 -28 l-122 -3 1 153 c1 84 4 166 8 183 8 37 28 43 154
44 l97 1 -1 -162z m1894 61 c81 -34 144 -65 140 -69 -4 -4 -109 -63 -233 -130
-124 -67 -364 -200 -535 -295 l-310 -173 -870 -7 c-478 -3 -875 -3 -881 2 -14
10 -176 284 -171 289 2 2 32 -19 66 -46 108 -87 93 -84 366 -76 132 3 266 9
298 12 l59 7 -7 67 -7 67 39 6 c76 13 73 16 66 -68 l-6 -75 254 -2 c140 -2
328 -2 419 0 l165 4 490 273 c270 150 495 274 500 274 6 1 77 -26 158 -60z
m382 -166 l129 -58 -144 -5 -145 -5 -350 -196 c-192 -107 -452 -250 -576 -318
l-227 -122 -458 -9 c-253 -5 -616 -10 -809 -11 l-350 -1 -43 64 -42 63 717 6
c395 3 785 10 868 14 l150 7 123 64 c109 57 513 281 882 488 74 42 137 76 140
76 3 0 63 -26 135 -57z m-2983 5 c28 -22 31 -55 9 -77 -55 -55 -136 14 -84 71
19 21 52 23 75 6z m3302 -181 c21 -9 51 -17 66 -17 36 0 120 -38 120 -54 0
-17 -164 -26 -450 -26 l-207 0 -575 -319 -575 -318 -139 -6 c-77 -4 -409 -8
-738 -9 l-599 -2 -43 55 c-23 30 -40 57 -37 62 2 4 237 7 521 8 284 0 639 4
788 8 l272 8 168 91 c93 50 351 192 574 317 l405 226 205 -4 c166 -2 212 -6
244 -20z m103 -219 c-15 -26 -35 -45 -49 -48 -12 -3 -39 -14 -58 -25 -31 -17
-59 -20 -248 -23 l-214 -4 -580 -325 -581 -324 -641 -6 -641 -6 -57 69 -57 69
577 7 c317 4 640 8 717 10 l140 4 575 321 575 322 284 1 283 0 -25 -42z m-183
-194 c25 -4 46 -12 46 -18 0 -6 -42 -69 -93 -141 l-93 -130 -110 -58 c-60 -32
-244 -132 -409 -222 -330 -180 -400 -215 -430 -215 -18 1 -18 2 5 23 14 12
211 128 438 257 227 129 424 244 439 255 l25 21 -22 45 c-30 59 -68 109 -84
109 -7 0 -201 -104 -432 -232 -500 -276 -590 -320 -662 -326 -135 -11 -156
-162 -26 -186 48 -10 70 -1 94 39 37 59 97 97 625 395 149 84 293 168 321 186
62 41 76 43 72 7 -3 -24 -45 -50 -435 -267 -237 -133 -444 -250 -459 -261
l-27 -21 32 -67 c18 -37 43 -74 56 -83 29 -19 6 -30 478 228 191 105 350 188
352 186 3 -2 -21 -32 -53 -65 -43 -46 -93 -82 -204 -147 -81 -47 -159 -96
-174 -109 l-26 -23 22 -44 23 -44 -54 -50 c-30 -27 -105 -91 -167 -141 -130
-107 -124 -105 -357 -105 l-140 0 -189 170 c-117 105 -202 174 -224 181 -40
13 -188 7 -219 -9 -10 -6 -41 -29 -68 -51 -28 -23 -72 -47 -102 -56 -35 -10
-59 -25 -77 -47 l-24 -32 -79 69 c-43 38 -136 127 -207 196 l-130 127 245 6
c134 3 411 9 615 14 l370 8 155 82 c85 45 343 188 574 316 l420 234 161 1 c89
1 182 -2 208 -5z m-1354 -684 c24 -24 25 -47 3 -72 -31 -35 -103 -12 -103 34
0 24 35 58 60 58 11 0 29 -9 40 -20z m-474 -289 c33 -22 124 -99 204 -173
l145 -133 150 -5 150 -5 -120 -81 c-66 -44 -160 -104 -209 -134 l-90 -54 -50
28 c-81 45 -300 191 -429 284 l-117 86 30 24 c21 16 32 35 36 64 13 80 90 137
185 138 50 0 64 -5 115 -39z m-350 -66 c15 -23 15 -27 0 -49 -23 -37 -53 -42
-82 -15 -44 42 -24 88 38 89 19 0 33 -8 44 -25z"/>
<path d="M3019 3351 c-37 -38 -40 -101 -6 -151 29 -43 67 -56 119 -40 57 16
88 51 88 96 0 72 -54 124 -130 124 -33 0 -48 -6 -71 -29z m129 -49 c16 -22 15
-42 -5 -64 -32 -35 -103 -14 -103 31 0 53 74 76 108 33z"/>
<path d="M3410 3197 c-14 -7 -25 -19 -25 -27 0 -22 162 -27 190 -5 20 15 20
15 1 30 -25 19 -131 20 -166 2z"/>
<path d="M3440 3005 c-18 -21 2 -65 29 -65 28 0 53 38 40 62 -12 22 -52 24
-69 3z"/>
</g>
</svg>
